<svg xmlns="http://www.w3.org/2000/svg" viewBox="0 0 3000 3000"><defs><style>.cls-1{fill:#8df2b9;}.cls-2{fill:none;stroke:#ebeff1;stroke-linecap:round;stroke-linejoin:round;stroke-width:100px;}</style></defs><g id="Magpie"><g id="Feathers_reduced" data-name="Feathers reduced"><path class="cls-1" d="M1847.46,1007.08C1723.88,919.09,471,1423,747,1485,1079.71,1559.71,2603,1545,1847.46,1007.08Z"/><path class="cls-1" d="M1181.61,1697.43C1295.91,1741.5,492.31,2734,434,2773c-24.62,20-423.35,154.53-384,75C67.4,2784.39,1123.64,1392.76,1181.61,1697.43Z"/></g><g id="Lines_reduced" data-name="Lines reduced"><g id="Lines"><path class="cls-2" d="M1720,979c357-54,594.09,313.38,76.3,421.74-218.25,21.78-431.19,49-652,89.76-40.26,31.65-93.43,19.24-137.36,16.71-102.41,25.83-204.71,52.16-306.11,82"/><path class="cls-2" d="M996.58,1397.45c89-112.54,198.95-178.67,325.42-240.45,140.78-129.51,395.81-231.12,523.42-332.4,106.34-84.32,215.22-192.68,281.55-294.22,141.67-216.48,461-168.24,517.92,98"/><path class="cls-2" d="M1970,2261c-36.71,38.61-44.71-20.41-117-18-95.07,3.16-185.68,51.07-191-24,21.77-29.37,79.64-56.26,98-95,9.87-54.18-184-307.92-3-275,310-117,388-232,489-424,126-239.53,91.14-471.3-67.88-572.48C2127,820,2068,803,1954,885"/><path class="cls-2" d="M2892.12,804.52c-62.29,41.27-304.58-38.28-362.44,20.71-191.54,162.55,21.44,299.29-151.56,572.29"/><path class="cls-2" d="M94.07,2651c198.63-246.23,465.62-463.34,690.46-693.63,113.69-111.65,225.22-223.82,331.56-343.46,32.28-40,79.63-73.67,14.43-108.36"/><path class="cls-2" d="M2892.12,804.52c73.17-20.51-185.46-141.33-254.7-157"/><path class="cls-2" d="M643,2258c-858,883,69.41,154.75,71,152.91,183-206.94,349.74-426.14,544.09-618.85,99.26-89.25,200.41,32.41,306.62,32.91"/></g></g></g></svg>